# xmcd
#
# Track frame offsets:
#	150
#	16444
#	55342
#	84006
#	107623
#	143480
#	167475
#	190398
#	214914
#	232381
#
# Disc length: 3387 seconds
#
# Revision: 0
# Processed by: cddbd v1.5.2PL0 Copyright (c) Steve Scherf et al.
# Submitted via: EasyCDDAExtractor 16.1.0.1
#
DISCID=820d390a
DTITLE=Davide Caldognetto Quartet - Chambre Blues
DYEAR=1900
DGENRE=
TTITLE0=titolo traccia 1
TTITLE1=titolo traccia 2
TTITLE2=titolo traccia 3
TTITLE3=titolo traccia 4
TTITLE4=titolo traccia 5
TTITLE5=titolo traccia 6
TTITLE6=titolo traccia 7
TTITLE7=titolo traccia 8
TTITLE8=titolo traccia 9
TTITLE9=titolo traccia 10
EXTD=
EXTT0=
EXTT1=
EXTT2=
EXTT3=
EXTT4=
EXTT5=
EXTT6=
EXTT7=
EXTT8=
EXTT9=
PLAYORDER=
